<?xml version="1.0" encoding="utf-8"?>
<!-- Generator: Adobe Illustrator 14.0.0, SVG Export Plug-In . SVG Version: 6.00 Build 43363)  -->
<!DOCTYPE svg PUBLIC "-//W3C//DTD SVG 1.1//EN" "http://www.w3.org/Graphics/SVG/1.1/DTD/svg11.dtd">
<svg version="1.1" id="Calque_1" xmlns="http://www.w3.org/2000/svg" xmlns:xlink="http://www.w3.org/1999/xlink" x="0px" y="0px"
	 width="1032.104px" height="709.461px" viewBox="0 0 1032.104 709.461" enable-background="new 0 0 1032.104 709.461"
	 xml:space="preserve">
<metadata><?xpacket begin="﻿" id="W5M0MpCehiHzreSzNTczkc9d"?>
<x:xmpmeta xmlns:x="adobe:ns:meta/" x:xmptk="Adobe XMP Core 4.2.2-c063 53.352624, 2008/07/30-18:05:41        ">
   <rdf:RDF xmlns:rdf="http://www.w3.org/1999/02/22-rdf-syntax-ns#">
      <rdf:Description rdf:about=""
            xmlns:xmp="http://ns.adobe.com/xap/1.0/"
            xmlns:xmpGImg="http://ns.adobe.com/xap/1.0/g/img/">
         <xmp:CreatorTool>Adobe Illustrator CS4</xmp:CreatorTool>
         <xmp:CreateDate>2011-04-11T09:04:33+02:00</xmp:CreateDate>
         <xmp:ModifyDate>2011-04-11T09:04:33+02:00</xmp:ModifyDate>
         <xmp:MetadataDate>2011-04-11T09:04:33+02:00</xmp:MetadataDate>
         <xmp:Thumbnails>
            <rdf:Alt>
               <rdf:li rdf:parseType="Resource">
                  <xmpGImg:width>256</xmpGImg:width>
                  <xmpGImg:height>176</xmpGImg:height>
                  <xmpGImg:format>JPEG</xmpGImg:format>
                  <xmpGImg:image>/9j/4AAQSkZJRgABAgEASABIAAD/7QAsUGhvdG9zaG9wIDMuMAA4QklNA+0AAAAAABAASAAAAAEA&#xA;AQBIAAAAAQAB/+4ADkFkb2JlAGTAAAAAAf/bAIQABgQEBAUEBgUFBgkGBQYJCwgGBggLDAoKCwoK&#xA;DBAMDAwMDAwQDA4PEA8ODBMTFBQTExwbGxscHx8fHx8fHx8fHwEHBwcNDA0YEBAYGhURFRofHx8f&#xA;Hx8fHx8fHx8fHx8fHx8fHx8fHx8fHx8fHx8fHx8fHx8fHx8fHx8fHx8fHx8f/8AAEQgAsAEAAwER&#xA;AAIRAQMRAf/EAaIAAAAHAQEBAQEAAAAAAAAAAAQFAwIGAQAHCAkKCwEAAgIDAQEBAQEAAAAAAAAA&#xA;AQACAwQFBgcICQoLEAACAQMDAgQCBgcDBAIGAnMBAgMRBAAFIRIxQVEGE2EicYEUMpGhBxWxQiPB&#xA;UtHhMxZi8CRygvElQzRTkqKyY3PCNUQnk6OzNhdUZHTD0uIIJoMJChgZhJRFRqS0VtNVKBry4/PE&#xA;1OT0ZXWFlaW1xdXl9WZ2hpamtsbW5vY3R1dnd4eXp7fH1+f3OEhYaHiImKi4yNjo+Ck5SVlpeYmZ&#xA;qbnJ2en5KjpKWmp6ipqqusra6voRAAICAQIDBQUEBQYECAMDbQEAAhEDBCESMUEFURNhIgZxgZEy&#xA;obHwFMHR4SNCFVJicvEzJDRDghaSUyWiY7LCB3PSNeJEgxdUkwgJChgZJjZFGidkdFU38qOzwygp&#xA;0+PzhJSktMTU5PRldYWVpbXF1eX1RlZmdoaWprbG1ub2R1dnd4eXp7fH1+f3OEhYaHiImKi4yNjo&#xA;+DlJWWl5iZmpucnZ6fkqOkpaanqKmqq6ytrq+v/aAAwDAQACEQMRAD8A9U4q7FXYq7FXYq7FXYq7&#xA;FXYq7FXYq7FXYq7FXYq7FXYq7FXYq7FXYq7FXYq7FXYq7FXYq7FXYq7FXYq7FXYq7FXYq7FXYq7F&#xA;XYq7FXYq7FXYq7FXYq7FXYq7FXYq7FXYq7FXYq7FXYq7FXYq7FXYq7FXYq7FXYq7FXYq7FXYq7FX&#xA;Yq7FXYq7FXYq7FXYq7FXYq7FXYq7FXYq7FXYq7FXYq7FXYq7FXYq7FXYq7FXYq7FXYq7FXYq7FXY&#xA;q7FXYq7FXYq7FXYq7FXYq7FXYq7FXYq7FXYq7FXYq7FXYq7FXYq7FXYq7FXYq7FXYq7FXYq7FXYq&#xA;7FXYq7FXYq7FXYq7FXYq7FXYq7FXYq7FXYq7FXYq7FXYq7FXYq7FXYq7FXYq7FXYq7FXYq7FXYq7&#xA;FXYq7FXYq7FXYq7FXYq7FXYq7FXYq7FXYq7FXYq7FXYq7FXYq7FXYq7FXYq7FXYq7FXYq7FXYq7F&#xA;XYq7FXYq7FXYq7FXYq7FXYq7FXYq7FXYq7FXYq7FXYq7FXYq7FXYq7FXYq7FXYq7FXYq7FXYq7FX&#xA;Yq7FXYq7FXYq7FXYq7FXYq7FXYq7FXYq7FXYq7FXYq7FXYq7FXYq7FXYq7FXYq7FXYq7FXYq7FXY&#xA;q7FXYq7FXYq7FXYq7FXYq7FXYq7FXYq7FXYq7FXYq7FXYq7FXYq7FXYq7FXYq7FXYq7FXYq7FXYq&#xA;7FXYq7FXYq7FXYq7FXYq7FXYq7FXYq7FXYq7FXYq7FXYq7FXYq7FXYq7FXYq7FXYq7FXYq7FXYq7&#xA;FXYq7FXYq7FXYq7FXYq7FXYq7FXYq7FXYq7FXYq7FXYq7FXYq7FXYq7FXYq7FXYq7FXYq7FXYq7F&#xA;XYq7FXYq7FXYq7FXYq7FXYq7FXYq7FXYq7FXYq7FXYq7FXYq7FXYq7FXYq7FXYq7FXYq7FXYq7FX&#xA;Yq7FXYq7FXYq7FXYq7FXYq7FXYq7FXYq7FXYq7FXYq7FXYq7FXYq7FXYq7FXYq7FXYq7FXYq7FXY&#xA;q7FXYq7FXYq7FXYq7FXYq7FXYq7FXYq7FXYq7FXYq7FXYq7FXYq7FXYq7FXYq7FXYq7FXYq7FXYq&#xA;7FXYq7FXYq7FXYq7FXYq7FXYq7FXYq7FXYq7FXYq7FXYq7FXYq7FXYq7FXYq7FXYq7FXYq7FXYq7&#xA;FXYq7FXYq7FXYq7FXYq7FXYq7FXYq7FXYq7FXYq7FXYq7FXYq7FXYq7FXYq7FXYq7FXYq7FXYq7F&#xA;XYq7FXYq7FXYq7FXYq7FXYq7FXYq7FXYq7FXYq7FXYq7FXYq7FXYq7FXYq7FXYq7FXYq7FXYq7FX&#xA;Yq7FXYq7FXYq7FXYq7FXYq7FXYq7FXYq7FXYq7FXYq7FXYq7FXYq7FXYq7FXYq7FXYq7FXYq7FXY&#xA;q7FXYq7FXYq7FXYq7FXYq7FXYq7FXYq7FXYq7FXYq7FXYq7FXYq7FXYq7FXYq7FXYq7FXYq7FXYq&#xA;7FXYq7FXYq7FXYq7FXYq7FXYq7FXYq7FXYq7FXYq7FXYq7FXYq7FXYq7FXYq7FXYq7FXYq7FXYq7&#xA;FXYq7FXYq7FXYq7FXYq7FXYq7FXYq7FXYq7FXYq7FXYq7FXYq7FXYq7FXYq7FXYq7FXYq7FXYq7F&#xA;XYq7FXYq7FXYq7FXYq7FXYq7FXYq7FXYq7FXYq7FXYq7FXYq7FXYq7FXYq7FXYq7FXYq7FXYq7FX&#xA;Yq7FXYq7FXYq7FXYq7FXYq7FXYq7FXYq7FXYq7FXYq7FXYq7FXYq7FXYq7FXYq7FXYq7FX//2Q==</xmpGImg:image>
               </rdf:li>
            </rdf:Alt>
         </xmp:Thumbnails>
      </rdf:Description>
      <rdf:Description rdf:about=""
            xmlns:xmpTPg="http://ns.adobe.com/xap/1.0/t/pg/"
            xmlns:stDim="http://ns.adobe.com/xap/1.0/sType/Dimensions#"
            xmlns:xmpG="http://ns.adobe.com/xap/1.0/g/">
         <xmpTPg:NPages>1</xmpTPg:NPages>
         <xmpTPg:HasVisibleTransparency>False</xmpTPg:HasVisibleTransparency>
         <xmpTPg:HasVisibleOverprint>False</xmpTPg:HasVisibleOverprint>
         <xmpTPg:MaxPageSize rdf:parseType="Resource">
            <stDim:w>364.103185</stDim:w>
            <stDim:h>250.282053</stDim:h>
            <stDim:unit>Millimeters</stDim:unit>
         </xmpTPg:MaxPageSize>
         <xmpTPg:PlateNames>
            <rdf:Seq>
               <rdf:li>Cyan</rdf:li>
               <rdf:li>Black</rdf:li>
            </rdf:Seq>
         </xmpTPg:PlateNames>
         <xmpTPg:SwatchGroups>
            <rdf:Seq>
               <rdf:li rdf:parseType="Resource">
                  <xmpG:groupName>Groupe de nuances par défaut</xmpG:groupName>
                  <xmpG:groupType>0</xmpG:groupType>
                  <xmpG:Colorants>
                     <rdf:Seq>
                        <rdf:li rdf:parseType="Resource">
                           <xmpG:swatchName>C=64 M=71 J=58 N=58</xmpG:swatchName>
                           <xmpG:mode>CMYK</xmpG:mode>
                           <xmpG:type>PROCESS</xmpG:type>
                           <xmpG:cyan>63.866596</xmpG:cyan>
                           <xmpG:magenta>70.940697</xmpG:magenta>
                           <xmpG:yellow>57.512802</xmpG:yellow>
                           <xmpG:black>57.912601</xmpG:black>
                        </rdf:li>
                        <rdf:li rdf:parseType="Resource">
                           <xmpG:swatchName>C=17 M=98 J=79 N=6</xmpG:swatchName>
                           <xmpG:mode>CMYK</xmpG:mode>
                           <xmpG:type>PROCESS</xmpG:type>
                           <xmpG:cyan>17.254902</xmpG:cyan>
                           <xmpG:magenta>98.431404</xmpG:magenta>
                           <xmpG:yellow>79.215698</xmpG:yellow>
                           <xmpG:black>6.274498</xmpG:black>
                        </rdf:li>
                        <rdf:li rdf:parseType="Resource">
                           <xmpG:swatchName>C=0 M=0 J=0 N=0</xmpG:swatchName>
                           <xmpG:mode>CMYK</xmpG:mode>
                           <xmpG:type>PROCESS</xmpG:type>
                           <xmpG:cyan>0.003099</xmpG:cyan>
                           <xmpG:magenta>0.000000</xmpG:magenta>
                           <xmpG:yellow>0.000000</xmpG:yellow>
                           <xmpG:black>0.003099</xmpG:black>
                        </rdf:li>
                     </rdf:Seq>
                  </xmpG:Colorants>
               </rdf:li>
            </rdf:Seq>
         </xmpTPg:SwatchGroups>
      </rdf:Description>
      <rdf:Description rdf:about=""
            xmlns:dc="http://purl.org/dc/elements/1.1/">
         <dc:format>image/svg+xml</dc:format>
         <dc:title>
            <rdf:Alt>
               <rdf:li xml:lang="x-default">LogoSudWeb</rdf:li>
            </rdf:Alt>
         </dc:title>
      </rdf:Description>
      <rdf:Description rdf:about=""
            xmlns:xmpMM="http://ns.adobe.com/xap/1.0/mm/"
            xmlns:stRef="http://ns.adobe.com/xap/1.0/sType/ResourceRef#"
            xmlns:stEvt="http://ns.adobe.com/xap/1.0/sType/ResourceEvent#">
         <xmpMM:RenditionClass>proof:pdf</xmpMM:RenditionClass>
         <xmpMM:DocumentID>xmp.did:F97F117407206811BEDCE14C57BEC46D</xmpMM:DocumentID>
         <xmpMM:InstanceID>xmp.iid:F97F117407206811BEDCE14C57BEC46D</xmpMM:InstanceID>
         <xmpMM:OriginalDocumentID>uuid:6214b174-7758-fb42-b2f1-9bf8022ab289</xmpMM:OriginalDocumentID>
         <xmpMM:DerivedFrom rdf:parseType="Resource">
            <stRef:instanceID>xmp.iid:F87F117407206811BEDCE14C57BEC46D</stRef:instanceID>
            <stRef:documentID>xmp.did:F87F117407206811BEDCE14C57BEC46D</stRef:documentID>
            <stRef:originalDocumentID>uuid:6214b174-7758-fb42-b2f1-9bf8022ab289</stRef:originalDocumentID>
            <stRef:renditionClass>proof:pdf</stRef:renditionClass>
         </xmpMM:DerivedFrom>
         <xmpMM:History>
            <rdf:Seq>
               <rdf:li rdf:parseType="Resource">
                  <stEvt:action>saved</stEvt:action>
                  <stEvt:instanceID>xmp.iid:F77F117407206811BEDCE14C57BEC46D</stEvt:instanceID>
                  <stEvt:when>2011-04-11T09:02:56+02:00</stEvt:when>
                  <stEvt:softwareAgent>Adobe Illustrator CS4</stEvt:softwareAgent>
                  <stEvt:changed>/</stEvt:changed>
               </rdf:li>
               <rdf:li rdf:parseType="Resource">
                  <stEvt:action>saved</stEvt:action>
                  <stEvt:instanceID>xmp.iid:F87F117407206811BEDCE14C57BEC46D</stEvt:instanceID>
                  <stEvt:when>2011-04-11T09:03:58+02:00</stEvt:when>
                  <stEvt:softwareAgent>Adobe Illustrator CS4</stEvt:softwareAgent>
                  <stEvt:changed>/</stEvt:changed>
               </rdf:li>
               <rdf:li rdf:parseType="Resource">
                  <stEvt:action>saved</stEvt:action>
                  <stEvt:instanceID>xmp.iid:F97F117407206811BEDCE14C57BEC46D</stEvt:instanceID>
                  <stEvt:when>2011-04-11T09:04:33+02:00</stEvt:when>
                  <stEvt:softwareAgent>Adobe Illustrator CS4</stEvt:softwareAgent>
                  <stEvt:changed>/</stEvt:changed>
               </rdf:li>
            </rdf:Seq>
         </xmpMM:History>
      </rdf:Description>
      <rdf:Description rdf:about=""
            xmlns:pdf="http://ns.adobe.com/pdf/1.3/">
         <pdf:Producer>Adobe PDF library 9.00</pdf:Producer>
      </rdf:Description>
   </rdf:RDF>
</x:xmpmeta>
                                                                                                    
                                                                                                    
                                                                                                    
                                                                                                    
                                                                                                    
                                                                                                    
                                                                                                    
                                                                                                    
                                                                                                    
                                                                                                    
                                                                                                    
                                                                                                    
                                                                                                    
                                                                                                    
                                                                                                    
                                                                                                    
                                                                                                    
                                                                                                    
                                                                                                    
                                                                                                    
                           
<?xpacket end="w"?>
	</metadata>
<g>
	<path fill-rule="evenodd" clip-rule="evenodd" fill="#FFFFFF" d="M897.959,294.71c3.206,7.211-3.892,14.111-8.364,19.715
		c-8.461,10.6-22.477,22.922-37.039,10.753c-9.58-8.005-15.367-23.426-19.715-36.442c-11.609,20.556-30.599,44.397-63.325,40.624
		c-16.693-1.925-29.032-9.646-36.442-22.104c-6.024,7.329-16.814,25.83-32.857,22.104c-8.854-2.057-12.794-16.435-14.338-26.883
		c-1.98-13.413-1.705-25.848-1.792-39.429c-8.553,22.154-15.183,44.581-32.26,58.546c-7.982,6.527-27.397,13.853-38.832,4.182
		c-2.713-2.294-6.582-8.016-8.363-11.948c-12.32-27.188-6.515-80.017,0.597-112.313c1.59-7.219,4.192-27.875,11.948-29.871
		c5.782-1.487,12.158,1.535,13.143,5.974c0.658,2.968-1.116,7.667-2.39,11.948c-6.691,22.493-13.741,56.061-13.741,82.442
		c0,13.972,2.205,37.543,15.533,38.234c4.993,0.259,9.384-3.288,11.948-5.376c7.891-6.427,13.551-16.7,18.52-26.884
		c11.73-24.045,20.641-54.69,24.494-89.014c0.757-6.746,1.265-16.485,3.584-18.52c4.233-3.713,14.622-2.021,16.728,2.987
		c1.532,3.645-0.244,10.55-1.194,16.728c-4.323,28.099-5.075,58.768-3.585,90.806c0.498,10.694,2.341,28.722,8.364,29.87
		c8.206,1.564,14.205-12.225,18.52-15.532c-11.899-32.002-2.019-69.011,14.936-93.196c15.486-22.093,39.161-36.709,75.273-31.065
		c0.237-29.305,6.053-61.385,17.325-83.637c3.122-6.164,10.477-20.747,16.727-20.91c13.691-0.357,16.416,26.914,17.923,43.014
		c5.138,54.915-6.049,104.196-20.91,144.573c-1.442,3.919-4.074,7.935-4.181,10.753c-0.146,3.795,2.624,9.085,4.181,13.741
		c3.261,9.744,10.111,31.831,20.312,32.26c5.76,0.242,10.447-5.535,14.338-8.961C887.36,298.061,890.854,293.03,897.959,294.71z
		 M839.413,126.241c-2.381,12.184-4.96,26.086-5.377,38.832c-0.371,11.302,1.17,23.107,1.792,34.649
		c0.612,11.367,0.31,22.891,2.987,33.455c10.793-39.644,21.855-94.275,11.351-142.183
		C845.695,101.27,842.038,112.799,839.413,126.241z M796.997,187.774c-31.277,2.939-54.385,37.402-56.754,70.494
		c-1.619,22.59,5.777,42.3,20.312,49.585c20.273,10.163,41.913-4.348,50.779-15.533c3.793-4.785,13.927-19.672,14.338-25.688
		c0.329-4.806-2.546-11.428-3.584-17.325c-3.433-19.492-4.409-38.165-4.779-59.741C809.069,188.466,804.991,187.023,796.997,187.774
		z"/>
	<path fill-rule="evenodd" clip-rule="evenodd" fill="#FFFFFF" d="M477.382,92.786c32.348-2.392,65.404,9.229,86.027,25.689
		c5.668,4.523,18.351,12.958,14.338,20.312c-4.017,7.361-13.842,1.174-16.728-1.195c-5.423-4.453-9.897-8.411-13.74-10.753
		c-18.131-11.05-49.419-20.359-81.248-14.338c-12.747,2.412-25.794,6.491-36.442,13.741c-8.021,5.461-20.114,16.93-16.728,32.26
		c3.382,15.309,28.253,18.893,43.611,23.299c34.371,9.86,69.894,17.783,98.573,34.649c14.692,8.641,27.914,18.303,33.455,32.858
		c7.068,18.565-2.588,38.821-11.351,48.987c-19.147,22.217-59.362,36.125-102.754,31.663c-20.55-2.113-37.737-6.314-54.364-13.143
		c-7.728-3.173-14.521-6.035-22.104-11.948c-5.538-4.319-14.282-13.925-10.156-20.91c2.46-4.164,9.221-3.984,14.338-2.39
		c5.78,1.802,8.315,5.003,11.351,7.169c8.163,5.826,16.543,9.878,24.494,13.143c16.12,6.62,39.708,13.037,62.728,10.753
		c19.967-1.98,39.893-9.78,51.377-18.52c6.648-5.06,17.859-14.78,15.532-31.065c-2.097-14.677-21.424-25.366-34.649-31.663
		c-32.025-15.246-63.004-20.393-99.768-31.663c-17.265-5.292-33.42-12.166-40.026-25.688c-9.289-19.012-0.441-40.757,9.559-51.377
		C418.146,106.259,448.738,94.904,477.382,92.786z"/>
	<path fill-rule="evenodd" clip-rule="evenodd" fill="#FFFFFF" d="M279.042,18.707c11.899-3.558,21.987,12.245,26.883,20.312
		c15.027,24.762,29.125,60.766,32.858,92.598c2.941,25.088-0.031,53.25-5.377,76.468c-2.341,10.167-5.019,20.395-9.559,32.26
		c-3.138,8.201-9.16,25.706-15.533,26.286c-6.474,0.589-13.481-10.875-17.325-18.52c-8.975-17.852-11.533-34.296-14.936-56.157
		c-6.275-40.311-9.885-86.454-8.961-133.222C267.422,42.155,267.277,22.225,279.042,18.707z"/>
	<path fill-rule="evenodd" clip-rule="evenodd" fill="#FFFFFF" d="M101.014,128.033c14.932-0.667,24.192,6.427,35.248,14.338
		c38.462,27.523,67.168,58.805,101.56,93.196c5.901,5.901,11.558,12.646,18.52,20.312c5.175,5.698,17.779,15.087,16.728,22.104
		c-1.833,12.235-27.27,2.011-31.663,0.598c-57.068-18.351-100.464-43.304-139.794-79.456c-7.007-6.441-14.54-13.829-21.507-22.702
		c-6.005-7.648-15.65-22.166-12.545-33.455C70.879,130.897,87.993,128.615,101.014,128.033z"/>
	<path fill-rule="evenodd" clip-rule="evenodd" fill="#FFFFFF" d="M119.534,297.1c45.83-2.182,88.875,3.597,129.04,11.948
		c7.632,1.587,12.956,2.03,14.338,5.377c3.718,9.006-14.182,15.631-20.909,17.922c-11.229,3.824-21.63,5.967-31.663,8.364
		c-23.06,5.51-42.2,9.061-65.118,14.338c-20.262,4.666-42.88,11.066-66.91,13.143c-17.34,1.499-38.372,1.399-50.182-7.169
		c-9.788-7.101-9.29-14.691-2.987-25.688c9.129-15.93,24.492-24.965,44.806-31.065C85.067,299.729,102.577,297.907,119.534,297.1z"
		/>
	<path fill-rule="evenodd" clip-rule="evenodd" fill="#FFFFFF" d="M321.458,353.256c8.808-0.998,14.806,14.485,18.52,25.091
		c8.761,25.019,10.906,40.372,15.533,68.702c5.82,35.639,10.145,76.571,5.376,117.093c-2.904,24.684-9.279,48.827-26.286,57.352
		c-13.478,6.756-32.476,0.977-40.624-8.962c-11.795-14.385-14.657-38.591-15.532-63.922c-1.169-33.811,5.081-74.289,11.351-106.937
		c2.002-10.424,4.774-21.702,7.169-32.26c3.466-15.288,8.506-48.914,22.701-56.156C320.062,353.054,321.009,353.307,321.458,353.256
		z"/>
	<path fill-rule="evenodd" clip-rule="evenodd" fill="#FFFFFF" d="M286.809,353.854c5.455,11.383-0.758,24.616-4.779,34.65
		c-4.092,10.212-10.112,20.392-14.935,29.273c-10.033,18.474-20.096,37.613-31.065,56.754c-10.01,17.467-22.156,35.884-37.04,51.378
		c-14.166,14.746-31.9,29.766-57.948,29.869c-12.521,0.051-25.825-3.304-28.676-11.947c-3.547-10.756,4.018-25.563,8.961-34.053
		c16.242-27.895,38.576-51.719,59.741-72.884c22.968-22.968,43.919-42.739,69.299-63.325c9.178-7.445,17.936-15.667,28.676-19.715
		C280.729,353.218,283.825,352.793,286.809,353.854z"/>
	<path fill-rule="evenodd" clip-rule="evenodd" fill="#FFFFFF" d="M430.784,359.23c10.634,44.328,21.824,88.1,32.26,132.625
		c13.656-43.496,25.832-88.474,38.832-132.625c10.555,0,21.108,0,31.663,0c12.643,44.31,25.673,88.232,38.234,132.625
		c11.491-43.671,22.344-87.978,32.858-132.625c14.736,0,29.472,0,44.208,0c-18.905,70.905-38.385,141.236-56.754,212.678
		c-11.948,0-23.896,0-35.845,0c-12.169-43.191-25.877-84.842-38.234-127.846c-13.482,42.077-26.325,84.793-38.832,127.846
		c-11.948,0-23.896,0-35.845,0c-18.272-70.742-37.151-140.876-56.156-210.886c0-0.597,0-1.195,0-1.792
		C401.711,359.23,416.248,359.23,430.784,359.23z"/>
	<path fill-rule="evenodd" clip-rule="evenodd" fill="#FFFFFF" d="M672.138,359.23c46.599,0,93.195,0,139.794,0
		c0,12.347,0,24.692,0,37.039c-32.857,0-65.715,0-98.572,0c0,16.329,0,32.658,0,48.988c26.884,1.394,56.355,0.199,84.234,0.597
		c0,12.546,0,25.091,0,37.637c-28.078,0-56.156,0-84.234,0c0,16.927,0,33.854,0,50.78c31.662,1.394,65.913,0.199,98.572,0.598
		c0,12.346,0,24.692,0,37.039c-46.797,0-93.595,0-140.391,0c0-70.296,0-140.59,0-210.886
		C671.489,360.175,671.441,359.331,672.138,359.23z"/>
	<path fill-rule="evenodd" clip-rule="evenodd" fill="#FFFFFF" d="M850.166,359.23c32.343,1.653,66.052-2.229,94.988,0
		c35.833,2.761,58.722,27.514,56.156,63.325c-1.366,19.057-11.749,31.851-25.688,40.026c7.306,4.842,13.643,8.389,18.52,14.936
		c13.35,17.922,12.963,45.211,3.584,63.923c-7.805,15.571-25.491,28.399-48.987,30.468c-31.513,2.773-66.967-2.078-99.17,0
		c0-70.296,0-140.59,0-210.886C849.517,360.175,849.469,359.331,850.166,359.23z M891.388,398.062c0,15.731,0,31.464,0,47.196
		c25.851-1.176,58.838,5.559,66.312-14.338c4.613-12.285,0.104-26.55-10.754-31.663c-13.784-6.492-35.684-1.185-54.962-2.987
		C891.288,396.37,891.336,397.214,891.388,398.062z M891.388,484.687c0,16.728,0,33.454,0,50.183
		c22.404-1.92,51.492,5.03,63.922-7.17c6.122-6.009,9.541-18.518,5.377-29.87c-7.635-20.813-40.452-13.833-68.702-14.936
		C891.288,482.994,891.336,483.839,891.388,484.687z"/>
	<path fill-rule="evenodd" clip-rule="evenodd" fill="#FFFFFF" d="M785.646,670.48c10.355,0,20.71,0,31.065,0
		c0,4.381,0,8.763,0,13.143c-16.528,0-33.058,0-49.585,0c0.795-1.542-0.958-8.695,0-12.545c0.684-2.749,4.862-6.636,8.363-10.754
		c5.685-6.685,11.931-13.377,17.923-20.312c4.532-5.244,9.782-10.388,7.767-17.923c-2.403-8.977-20.072-9.529-19.117,3.585
		c-4.979,0-9.957,0-14.936,0c-0.568-32.286,51.203-31.77,49.585,1.194c-0.497,10.138-9.114,18.202-15.532,25.689
		C795.747,658.894,789.669,664.39,785.646,670.48z"/>
	<path fill-rule="evenodd" clip-rule="evenodd" fill="#FFFFFF" d="M847.776,602.376c12.429-1.759,24.066,4.687,27.48,14.338
		c2.826,7.984,1.195,19.15,1.195,27.481c0,8.573,1.284,19.673-1.792,26.883c-5.659,13.257-33.326,20.867-44.209,2.986
		c-3.894-6.396-3.584-19.17-3.584-28.675C826.867,620.052,825.828,605.481,847.776,602.376z M841.802,641.806
		c0,14.137-1.487,30.029,10.754,29.272c10.924-0.676,8.961-13.688,8.961-28.078c0-13.494,1.86-30.714-12.545-26.884
		C840.446,618.383,841.802,627.638,841.802,641.806z"/>
	<path fill-rule="evenodd" clip-rule="evenodd" fill="#FFFFFF" d="M924.244,602.376c0,27.083,0,54.164,0,81.247
		c-4.979,0-9.956,0-14.935,0c0-21.307,0-42.615,0-63.922c-5.145,2.426-10.56,9.75-16.728,13.143c0.901-6.266-1.276-10.789,0-14.935
		c1.357-4.413,14.402-11.89,17.325-15.533C914.686,602.376,919.465,602.376,924.244,602.376z"/>
	<path fill-rule="evenodd" clip-rule="evenodd" fill="#FFFFFF" d="M985.181,602.376c0,27.083,0,54.164,0,81.247
		c-4.979,0-9.957,0-14.936,0c0-21.307,0-42.615,0-63.922c-5.144,2.426-10.56,9.75-16.728,13.143c0.902-6.266-1.276-10.789,0-14.935
		c1.358-4.413,14.403-11.89,17.325-15.533C975.622,602.376,980.401,602.376,985.181,602.376z"/>
</g>
</svg>
