<?xml version="1.0" encoding="utf-8"?>
<!-- Generator: Adobe Illustrator 14.0.0, SVG Export Plug-In . SVG Version: 6.00 Build 43363)  -->
<!DOCTYPE svg PUBLIC "-//W3C//DTD SVG 1.1//EN" "http://www.w3.org/Graphics/SVG/1.1/DTD/svg11.dtd">
<svg version="1.1" id="Calque_1" xmlns="http://www.w3.org/2000/svg" xmlns:xlink="http://www.w3.org/1999/xlink" x="0px" y="0px"
	 width="1032.104px" height="709.461px" viewBox="0 0 1032.104 709.461" enable-background="new 0 0 1032.104 709.461"
	 xml:space="preserve">
<metadata><?xpacket begin="﻿" id="W5M0MpCehiHzreSzNTczkc9d"?>
<x:xmpmeta xmlns:x="adobe:ns:meta/" x:xmptk="Adobe XMP Core 4.2.2-c063 53.352624, 2008/07/30-18:05:41        ">
   <rdf:RDF xmlns:rdf="http://www.w3.org/1999/02/22-rdf-syntax-ns#">
      <rdf:Description rdf:about=""
            xmlns:xmp="http://ns.adobe.com/xap/1.0/"
            xmlns:xmpGImg="http://ns.adobe.com/xap/1.0/g/img/">
         <xmp:CreatorTool>Adobe Illustrator CS4</xmp:CreatorTool>
         <xmp:CreateDate>2011-02-07T09:53:35+01:00</xmp:CreateDate>
         <xmp:ModifyDate>2011-02-07T09:53:35+01:00</xmp:ModifyDate>
         <xmp:MetadataDate>2011-02-07T09:53:35+01:00</xmp:MetadataDate>
         <xmp:Thumbnails>
            <rdf:Alt>
               <rdf:li rdf:parseType="Resource">
                  <xmpGImg:width>256</xmpGImg:width>
                  <xmpGImg:height>176</xmpGImg:height>
                  <xmpGImg:format>JPEG</xmpGImg:format>
                  <xmpGImg:image>/9j/4AAQSkZJRgABAgEASABIAAD/7QAsUGhvdG9zaG9wIDMuMAA4QklNA+0AAAAAABAASAAAAAEA&#xA;AQBIAAAAAQAB/+4ADkFkb2JlAGTAAAAAAf/bAIQABgQEBAUEBgUFBgkGBQYJCwgGBggLDAoKCwoK&#xA;DBAMDAwMDAwQDA4PEA8ODBMTFBQTExwbGxscHx8fHx8fHx8fHwEHBwcNDA0YEBAYGhURFRofHx8f&#xA;Hx8fHx8fHx8fHx8fHx8fHx8fHx8fHx8fHx8fHx8fHx8fHx8fHx8fHx8fHx8f/8AAEQgAsAEAAwER&#xA;AAIRAQMRAf/EAaIAAAAHAQEBAQEAAAAAAAAAAAQFAwIGAQAHCAkKCwEAAgIDAQEBAQEAAAAAAAAA&#xA;AQACAwQFBgcICQoLEAACAQMDAgQCBgcDBAIGAnMBAgMRBAAFIRIxQVEGE2EicYEUMpGhBxWxQiPB&#xA;UtHhMxZi8CRygvElQzRTkqKyY3PCNUQnk6OzNhdUZHTD0uIIJoMJChgZhJRFRqS0VtNVKBry4/PE&#xA;1OT0ZXWFlaW1xdXl9WZ2hpamtsbW5vY3R1dnd4eXp7fH1+f3OEhYaHiImKi4yNjo+Ck5SVlpeYmZ&#xA;qbnJ2en5KjpKWmp6ipqqusra6voRAAICAQIDBQUEBQYECAMDbQEAAhEDBCESMUEFURNhIgZxgZEy&#xA;obHwFMHR4SNCFVJicvEzJDRDghaSUyWiY7LCB3PSNeJEgxdUkwgJChgZJjZFGidkdFU38qOzwygp&#xA;0+PzhJSktMTU5PRldYWVpbXF1eX1RlZmdoaWprbG1ub2R1dnd4eXp7fH1+f3OEhYaHiImKi4yNjo&#xA;+DlJWWl5iZmpucnZ6fkqOkpaanqKmqq6ytrq+v/aAAwDAQACEQMRAD8A9U4q7FXYq7FXYq7FXYq7&#xA;FXkdxqt3Lq0t+krLMZC0bg7gV+ED2A2zx7Va7JLUSzCR4uLY/d8HtseniMQgRtT0ny9rC6ppyzGg&#xA;nT4J1H8w7j2PXPSuxe0xrMAn/GNpe/8Ab+x5XW6Xwclfw9EzzbuG7FXYq7FXYq7FXYq7FXYq7FXY&#xA;q7FXYq7FXYq7FXYq7FXYq7FXYq7FXYq7FXYq7FXYq7FXYq7FXiURzxCT35ZN5P1M2eqpGxpDc0if&#xA;wqfsH79vpzeezWv8DVCJ+jJ6T7+h+e3xdX2np/ExE9Y7/rej56m8o7FXYq7FXYq7FXYq7FXYq7FX&#xA;Yq7FXYq7FXYq7FUj85+cdI8o6FLrGps3pIRHDClDJLK1eKICQK7E+wGRnLhDm6DQZNVlGOHP7h3o&#xA;fyF580jzpop1PTleExSGG4tpac43AB7EggqQQcEJ8TZ2l2bk0mTgnvYsEdWSZN1zsVdirsVdirsV&#xA;dirsVdirsVdirsVeIoGVirbMpoR7jPE8kSDRfQOaLiYihBoRuCMosg2GqQes6Xd/XNOt7nvKgLf6&#xA;3Rvxz2fs/U+Pghk/nRHz6/a8VqMXh5DHuKKzMaXEhQSTQDck9KYq8680/nz5B0GVreO4fVrtDRor&#xA;EB0U/wCVKxWP/gScqOYdHf6P2b1WcWRwR/pfq5/Onn1//wA5SaozH9H6DBEv7JuJnlJHuEWLKzmP&#xA;R32L2Oh/HkJ9wr9aHtv+covMSyVudFs5Y/5Y3ljP3sZP1Y+LLyZz9jsVbTkPkf1M08t/85I+TNSd&#xA;IdWgn0aZti7/AL+AE9vUjAf6TGBkxmHV0+r9lNRj3xkZB8j8j+t6nZX1lf2sd3ZTx3VrMOUU8LB0&#xA;YeKspIOWg281kxyhIxkCJDoVfCwdirsVdirsVdirsVdir5w/ObUL3zn+aGneTLGTjb2ckdtyG6ie&#xA;ejzSkVFfTSgp7HxzFyG5PoHYGKOk0UtTIbyBPwHIfE/eET/zjLczWnmPzDo0p4uYUlePwe2lMbU/&#xA;5HYcJ3a/a6Anhx5B3/eL/Q+hsyXg3Yq7FXYq7FUp8zeatE8taf8AXtWn9GJm4RIoLPI9K8UUdf1Z&#xA;XlyxgLLlaPRZNRPhxiz9zAj/AM5A+XjJSLTbpo+zMY1an+qGb9eYMu0QP4S73/QvmreUftZn5W89&#xA;+XfMsZ/R85W5UVks5gEmUeNKkMPdScysGqhk5c+50+t7Nzac+sbd45MgzIcB2KuxV2KvFbpPTvri&#xA;P+SV1367MRnjWsjw5ZDukfve9xm4A+QVYjmDJS9F8jzGTROB/wB0yug+Ro//ABtnpvsll4tHX82R&#xA;H3H9Lyva0azX3gfqZBnTOsfMv50/mhq+v6/P5V0SSRdKt5fqskcFfUu7gNwZTx3ZA/wqo69d9qYu&#xA;Sd+59G9n+x8eDEM+QDjIvf8AhH6+89GWeQv+ccNLgtor3zezXV445HTIXKwx16LJIlGdh34kD59c&#xA;nHF3ur7S9q5yJjp/TH+ceZ9w6ff7nrGl+UPKulIE07SLO1A/aigjVjtSpanIn5nLBjj3PL5tdnyn&#xA;1zlL4lF3OjaRcxmK5sbeeI9Y5IkdT9DAjDwR7mqGfJE2JEH3sH8z/kR+X2txu0Fl+ibsj4J7H92o&#xA;PasP90R8gD75CWIHk7nR+0mrwneXHHul+vm8int/zD/JbXFkif67oNy+7Ub6rcbfZdd/Rmp0/wCN&#xA;hXKd4F6qMtJ2vio+nKP9NH9cfxsX0loWrQ6xothq0CNHDfwR3Ecb/aUSqGAPuK5lRNi3z3U4DiyS&#xA;xnnEkfJHYWl2KuxV2KuxV2KtMyqpZjRVFST0AGKgW+a/yMRvMX5t6n5hnUn00ur5Sf2ZLmTgo/4C&#xA;VsxcW8n0P2jPgaCOIf0Y/CI/WAi/yZPpfnd5jjj+FCuoIVA24i7Qgf8ACjHFzau39+zcRP8AQ/3J&#xA;fRWZTwLsVdirsVdiryH/AJyN0a9uNB03WIAXh0yWRLpR+ylyEAkPsGjC/wCyzD1cLAL1fspqIxyy&#xA;xnnMCv8ANvb7fseCQ3nvmtlje6ljTOw1S4tZ47i2laGeIho5UJVlI7gjKDAg2HGy4RIEEWC91/Ln&#xA;84INUaLStfdYdQai295sscx6BX7K5+4+3fZ6XW36Z8+94ntbsE4ryYt49R1H7HqObJ5l2KuxV47r&#xA;8Xo6/qCdvrEjD5MxYfrzyTtfHw6nIP6Z+029xo5cWGB/ohRiOaiTcXoXkEH9FznsZyPuRc9E9jR/&#xA;g0/6/wDvYvMds/3g/q/pLJJfU9J/Sp6nE8K9OVNs60upjV7vjb8stW0/SfzG0nUNbbhbQ3D/AFmS&#xA;WvwSOjorvXpwkYMT7ZhxIBD632vhll0k4YuZG1fDb4h9kwzRTRJNC6yRSKGjkQhlZSKggjYg5mgv&#xA;kkokGjzXYodirsVWywxTRtFMiyRuKMjgMpHuDgItMZEGwuAAAAFAOgwoW+rH6np8x6lK8KitPGmC&#xA;00atdhQhtQ1PTdNtWu9Ru4bK1UgNcXEixRgk0ALuQN8BIDZiwzyS4YAyl3AWqWl5aXltHdWk8dzb&#xA;SjlFPEyvG6+KspII+WINonCUCYyBBHQquFg07oil3YKi7szGgA+ZxtIF8mO+ZPNOgroGriDVLR7q&#xA;KyuHWITxlqiIkfCG5daZVOceE7ufpNHlOWFwlwmQ6HveT/8AOLFqvHzHdmhatrEh7gfvWb79shh5&#xA;l6j2yn/dR/rH7kt/Il/r35va/fr/AHbQXk3IA8T6t3HQb9NmJyOHct/tGODQY4+cR8ol9G5lPAOx&#xA;V2KuxV2KqN5Z2t7aTWl3Es9tcI0c0LiqsjChUj3GAixRZ48koSEomiHyt+aX5Yal5N1Frm2V7jy/&#xA;cOfqt0AT6VTtDMezDsf2vnUDAyYuEvpvY3bMNXDhltlHMd/mPxswqK6I75jyg7kwR0F575jyxtMs&#xA;b2v8rPzfVRDofmKYlCQlnqLmvGvRJmPbwbt323zM02q4fTPl3vG9tdhXeXCPfH9I/U9rzaPHOxV5&#xA;X55g9HzNcN0EyxyD/gAp/FTnmftLi4dXI/zgD9lfoew7JnxaceV/elMRzm5OcXpfkiHhoKP/AL+k&#xA;d/uPD/jXPTPZTFw6MH+dKR/R+h5TtaV5q7gP1p/nSOseF/mr+QN3qWo3Ou+VChnuWMt3pcjBOUjE&#xA;lnhdvh+I7lWoPA9sx54u57Tsb2mjjgMWfkNhLy8x+kPKIdV/M7yHN9XWXUNFAY8YJQwgZu5VJA0T&#xA;/MA5VZD08sOi1ouoZPPr9m4ZpoX/ADkz5stAE1iwttTjFKyJW2lPjUrzj+5BlgykOo1PsjglvjlK&#xA;H+yH6/tejaB/zkV5A1IrHfNPpExoP9Ij5xEnwki57e7BcmMw6vP6n2W1WPeNTHkd/kf0W9H03VtL&#xA;1S2F1pt3De2x2E1vIsqV8OSkiuWgg8nQZsE8cuGcTE+YpFYWp2KvlvyTd3/m78+E1RZnKC8mu/VB&#xA;+zawBhEm37JUJH9OYcfVIPpXaEI6Xszgr+ED/OPP9JfUmZj5q8Z/5ygvAnlTSbOtDPfGWniIoXX/&#xA;AJm5RmPIPXex+O885d0K+ZH6mVfkZZva/lfowk+1MJpqe0k7lf8AhaZLF9LrPaPIJa2ddKHyARn5&#xA;mfmPpvkjRhcygXGpXPJdPsq05sBu7+CJUV+7Dknw+9q7I7KnrMlDaA+o/jq8BsdH/NP827+S7mnY&#xA;6ej/AN9OzQ2MR/kiRQ3JgP5VJ/mOUAGRe4yZ9D2XERA9XlvI+8/jyTzWf+cadV07RrvURrkEz2kM&#xA;k8kJhdARGhcgPybw/lwyxkC3Dwe1sMmQQ8MjiIHPvVP+ce9b/RXl/wA73TNRbK1ivE8Kxx3BPvU0&#xA;WmMDQPfTH2o0/i5cEf50jH5mKO/5xa05jca/qTL8Kpb20b+JYu7gfLiuSwjdp9ssu2OHvP3ftfQG&#xA;ZDwrsVdirsVdirsVUL+wstQs5rK+gS5tJ1KTQSAMjKexBwEAiizx5ZY5CUTUh1fOH5nfkXqWgtLq&#xA;vltJL/R6lpbUVe4tx8uskY8eo7+OYmTFXufQux/aOGaoZqjk7+h/Ufs+55RHMR3zHMXqCEXDdkd8&#xA;pljapQe3/k9+bgQw+XdfnHomiadeyH7B6CGRj+z/ACk9OnTpk6bPw+mXJ4zt7sO7zYhv/EP0j9L3&#xA;PNi8U8+/My0K3tneAbSRtEx90PIf8Tzhva3BU4ZO8V8v7XpewslwlHuN/P8AsYnCdx45xUg7ovYt&#xA;JtDaaZbWxFGijUP/AK1Kt+Oexdn6fwcEMfWMR8+v2vD6nJx5JS7yi8zGh2KrJ4ILiJoZ41licUeN&#xA;1DKR7g7YCL5soyMTYNFhWufkt+W+r8mk0iOzmPSayJtyP9gn7v71yBxAu30/tBrMXKZkP6W/37/a&#xA;848w/wDOL0gDSeXdYD/y21+lD/yOiH/MvKzhPR6DS+2A5ZofGP6j+t5nqPl78xvy+vxdSRXekyAg&#xA;JfW7Ewvvsvqxko1f5W+kZUQQ9Hi1Wk10eEGM/I8/kd/i9Q/Lz/nI0vJFp3nJFXkQqavCvEV6VnjX&#xA;Yf6yf8D3y2OWubzXanspQM9P/pT+g/oPzev+bdZitPJWr6vbSrLHHp889tKjBkc+kTGVZaghjShG&#xA;WzPpLyuiwGWphjIr1gH57vFf+cXNID6nrmrsu9vDFaRN/wAZmMj0+Xor9+U4Ru9h7Y56hjx95J+W&#xA;w+8vobMl4J84f85Qass3mLR9KU1+pWrztTs1y/Gn3QA5jZTu+gex+CsU5/zpV8h+17Z+XUcdv+X3&#xA;l0VCqNMtZGJ2A5wq7V+/LoCovH9qky1eX+vL73zxIl5+bn5tvGJHXS+TBXXrDp9uaVWvRpCf+Cfw&#xA;zH3kXvQY9l6C69f3zP6vuD6h03TbHTLCCwsIVt7O2QRwQoKKqj/PfMoAAUHzbLllkkZyNyPNR8wW&#xA;/wBZ0DUrehPrWs8dBsTzjYfxyOT6T7mellw5YnukPvfHvlrzIuleU/NNgH4z6vFa28Q7kLMWk/5J&#xA;8h9OYlvq+r0ni58UukDI/Zt9r6F/5x60NtN/LqC5dSsuqTy3ZB6hKiJPoKxch88ycI2t4P2o1Hia&#xA;sgcoAD9P6XpmWvOuxV2KuxV2KuxV2KuxV5v59/I3yx5maS9sqaRq71ZriFQYpWJqfViBUVP8y0Pj&#xA;XKZ4QeT0PZntFm01Rl68fceY9x/R9zwDzZ+WnnPyo7Nqdiz2amg1C3rLbn3LgVT/AGYBzGnAjm91&#xA;oe19Pqfol6v5p2P7fhbG45yO+UmDsTF73+S/5vrKIvLXmG4o4ommX0p69hBIx7/yE/LwzIwZa9J5&#xA;PD+0HYVXmwj+sB94/T83rHmvRzqujywRitxGRLB7uvb/AGQJGY/bOh/M6cxH1Dce8fr5PM9n6nwc&#xA;oJ+k7FgXlDSpL3XIo5EIjtm9S4DClOB2U18W2pnB9iaA5tWAR6YG5fDp8/0vR9pagY8JIO8th8Xq&#xA;ueovHOxV2KuxV2KuxVZPbwXELwXEazQSArJFIoZWU9QymoIwEWyjIxNg0Xzv+d/5N6bolhJ5n8vJ&#xA;6FkjqNQsKkpH6jBVkiruF5sAV7V22zHyY63HJ732e7enml4OXeX8Mu+uh/WknlHzlfP+TnnDQrl2&#xA;kjsI7d7IncrHdXKxSR7/ALIY1HzOQB2IczXaCI7Qw5RzkZX74xsH8dz0n/nGW0WLyNe3O3O41CTc&#xA;deKRRAA/SWy7DyLz3tdO9TEd0B95eu5c8q+LvzM8yL5i886vqkb87Z5jFaMDUGGECKNh/rKnL6cw&#xA;pGzb6/2RpPy+mhA86s+87n9T6V13UX078k5LqNuEi6HEiPWlGlt1jBHvV9suJrH8A+d6bEMnaIif&#xA;9VP2Stgv/OLmkxiz13V2WsjyRWkbeCopkcD581+7BhG5d17Y5jxY8fkT+j9b3bMh4pxAIIIqD1GK&#xA;viG48r3/APjGXyxboWvRfNYRAg7sJTGGPt3r4ZgvskdZH8uMx+ng4vst9qaTpttpel2em2opb2UM&#xA;dvCD14RKFFfoGZsRQp8gz5jknKcuciT80VhanYq7FXYq7FXYq7FXYq7FWmVWUqwBUihB3BBxUFgn&#xA;mf8AJPyBr5eY2X6NvH3NzYkQ79amOhiNT1PGvvlUsMT5O70ftDqsG3Fxx7pb/bz+15lq/wDzjR5i&#xA;hlJ0fVba7grsLkPBIB4fCJVPzqMolpy9Jg9rsJH7yEony3/U9z8pafq+neW9OsdXuFu9StoVjubh&#xA;SSGZenxMFLUFBUjfrmTjiRGi8VrsuPJmlLGOGBOwTRIYkZ3RFV5DV2AALEeJHXDGEQSQNzzccyJF&#xA;E8l2SYofUr1LDTrq+kRnS1hkndE+0wjUsQte5pgkaFtmLGZzER/EQPm8v8p/85F+VNZ1EWOp276K&#xA;ZNobmeRXgJ8HcBPTr4kU98qjm73pNb7K58UOKB8TyA3+A6/e9XR0dFdGDIwBVgagg9CDlzzBFN4o&#xA;dirsVeRf85C+edMsPK03lmGVJdW1MoJYVIJhgRxIXfwLcQqg+JPbKMshyeq9l+zpzzjMRUIfaeTz&#xA;Lyt5VvIvyV84a9IlFvzaQ2YO1YrW7R5n+RbYe6nKwNiXo9ZrYntHDiH8PET75RNfjzer/wDON90k&#xA;35dGJacra+njce5VJP1PluHkXmPauBGrvviP0j9CafnX52Tyx5MuEhkC6pqga0slBowDCkso7/Ah&#xA;6/zEYcsqFd7jez/Z51OoBI9ENz+gfH7rfOV95Tex/LWw8xTx0l1XUHjgY9oIY2C/LnJz+4ZjV1e/&#xA;x60T1ksIO0Ib+8n9Ar5vofULWTWPyEWNP3s0mgQSgAbtJDbpJQAU35JmQRcHgsUxi7UvkPGP2yIY&#xA;X/zi5rUHoa3ojsBOGjvYUruykenIQP8AJIT78jhO5dx7Y6c3jydN4/pH6XvOZDxCT+bfNGm+WNAu&#xA;9Z1BqQ26/BGD8Ukh+xGn+Ux/rkZyoOXodHPU5RjhzP2DvfH9r5q1eDzhD5xmQm5e/a8ZgCI3cOHl&#xA;jUnanF+NOwOYdvq89Fjlpzpxy4OH9Rfadnd295aQXls4kt7mNZoZB0ZHUMrD5g5mg2+QZIGEjE8w&#xA;aVBIhcoGBcCpWu4B9sNsaPNvFDsVdiqUeYPNGmaHCGuW5zuKxW6U5t7nwX3zX6/tLHpo+reR5Dq5&#xA;mk0M859PLvef6l+ZeuXLEWxSzj7BAHanuzA/gBnJ6j2g1OQ+moDy3PzP7HosPY2GP1eopFceZtam&#xA;JMt/cNXt6jAb+wNM1s9XqJ85y+Zc6GjxR5Rj8kHJqt25q9xIxHcux/jkOKZ5k/NuGGI5ALBrV/Hs&#xA;l1KgG44uw3+g5ZGWQcpH5lJwQPMD5K0Xm/zBAax6lcinQGV2H3MSMyseq1EeU5fMtctBhlzhH5Jh&#xA;bfmh5rg+1dJOo/ZljQ/ioU/jmdj7W1Mf4r94DjT7F08ule4sj8v/AJs319qVrYXGmpJJcyLHzt2Y&#xA;FeRoW4NzqB1O+bTS9sznIRlHn3fgut1XYUIQMxPkOr0rOhebdirsVcQCCCKg9Rirwn8wv+ccvrV3&#xA;NqXlCWOAysXk0qY8IwTufQcA8QT+w2w8QNsx5Yu57Xsv2q4YiGoBNfxDn8R+n7GAWevfnB+WziCV&#xA;LuzskIAtrtDPZn2jb4kHX/dbDK7MfJ3uTTdn9objhlLvG0vj1+YZppP/ADlJcqqpq+gpI37c1pMU&#xA;H0RyK/8AxPLBmLp8/scP8nk/0w/SP1JlN/zlJoojYw6FcvL+yrzRopPuwDkfdj4x7nHj7HZL3yRr&#xA;3FiOuf8AOQP5geYJPqGg2q6d69VRLRGuLtq9g5H/ABBAffIyyEu10/sxpcA48p4679o/j3lFeRPy&#xA;C8x63fLq3nFpLOzd/Vlt5GLXlwTueZqTGG7ljy9h1xjiJau0vabDhj4enqUu/wDhj+v7nvWs+WLC&#xA;98o3nlu2iS1tJ7N7S3RAAkYKFUIH+SaHL5Q9NB4nBrJQzxzE3IS4j5vmHyL+Y3mP8s9R1PS57FZ1&#xA;aThdWEzGMxzxVXkrAN267b7ZjRkY8n0ftHsrD2jCExKu4jqCradY+c/zh86LcXpZbNCFubhFIt7S&#xA;3B5enHWvxn9kVJJ3O1SEAyLDLk0/ZWnqP1dB1ke8+T1z89vKcbflZHb6ZBxg0CSCaKFBUiCNGgbx&#xA;NFWTkx9q5dkjUdujy3s5rT+dJmd8oI+J3/RTynSPzN85av5OsPy60SyLXs1bQ3sbEyPbuxPp8aAR&#xA;gKeLOWpw8OuVcRrhemz9kafFqJavJL0jeul9/n5DvUvMXknzx+VWuWet2EjSwRqhTU4kJh5stJYJ&#xA;lNaAmoHL7Q3G/QGJiz0vaGm7TxHHIUf5p5+RH429zLYf+cpr4WarN5die9CgNMl0yRFu5EZjdgPb&#xA;n9OWeMXVS9jY8W2Q8P8AV3+d/oYxBH+ZH5ya9F9Yb09Lt3o8qoUsrVTTlxBNZJCO3IsfEL0hvIuy&#xA;kdH2TiNfWf8ATS/UPs+L0381fyltZfy5srHy9bFrny6DLbxgcpZo3H+kDYfE7kCT3IoOuWTx0Nnn&#xA;Oxu25DVyllO2Xn3A/wAPwHJ5n5T/AD58x+XfKX+H4rSO6nhBTTr6VjWFGNeLR0PqcSfh+IU6bgZW&#xA;MhAp6PW+zWHPn8UkxB+od/x6eb1n8kfJWu6Za3vmbzJLK+ua7xZ4pyTIkK7qZK7h2r9n9kUGxqBb&#xA;ihW5eW9oe0MWSUcOEDw8fdyvy8vvL1DLnm3Yq7FXz5rWuXOpalcXlwT6krmiH9hRsqD/AFRtnnOp&#xA;lLNkM5cz+KfQtNp44oCMeQS5rr3ysYXI4VJrr3yYwp4VNrr3ywYmXCmNj5d8y6hQ2em3Eqt0k9Nl&#xA;T/g2ov45lY9DknyiXGy6vDj+qcR8WRWP5SebbmhuTBZL3EknNvoEYZf+GzPx9i5Tzofjydfl7e08&#xA;fpuXw/WyTTvyX0uOjajqE1yRvwhVYV+Rr6h/Vmfj7EgPqJP2Oty+0Mz9EQPfv+pmWi+V9B0VaabZ&#xA;pC5FGm3aQj3dqt9FaZs8Glx4vpFOn1Gty5vrlf3fJHfXrI3X1T6xF9apy+r819SnWvCvLLuON1e7&#xA;R4cuHio8Pf0W32padYRrLfXUNpG7BEeeRY1LHooLEb4ymI8zSceKczUQZHyFojJNbsVdirTKrKVY&#xA;AqRQg7gg4qCkd95D8k37F7zQbCaQ9ZGtouZ6/theXfxyHhx7nNx9pamG0ckx/nFBQ/lV+XMT818u&#xA;2RP+XEHH3NUYBii3S7Z1Z/ykvmn+naRpOmRelptlBZRf77t4kiX7kCjJiIHJwcueeQ3ORkfM2i8L&#xA;U7FUn1byb5T1i5+tapo9ne3NAvrzQo78R0BYippkTAFy8Gvz4hwwnKI7gSmNlY2NjbJbWVvFa20e&#xA;yQQosaL8lUADCABycfJklM8UiZHvO6s6I6MjqGRgQykVBB6gjCxBpLdJ8seXNHklk0nS7Wwkm/vX&#xA;toY4i3sSoG3tkREByM+szZQBknKVd5JTJ0R0KOoZGFGVhUEHsQck44Nckhk/L7yJLP68nl3TWl3J&#xA;Y2kO5PcjjQn55Hgj3OaO1NUBQyTr+sU7t7e3t4Ugt4khhjFEijUKqjwCigGECnDlIyNk2VTCxShP&#xA;J3lNNUOqpo9mupFuf1wQR+rz/m5Ury9+uR4B3OWdfnMPD45cHdZpN8k4jsVdirsVYrrv5a+WtXuH&#xA;uWSS0uZCTJJbMFDMe7KwZfnQDNdn7Lw5DxVR8na6btjPiHDtIeaTf8qW0Oprf3dOwHpg/wDEcxh2&#xA;Jj7y5f8Aoiy/zY/b+tH2f5ReToCDKk93T/f0pH/JoR5fDsnCO8/jyaMnb2olyIj7h+u2R6d5b0DT&#xA;aGx0+CBx0kWNef8AwZ+L8czMemxw+mIDr8ury5PqkT8Uxy9xnYq4kAEk0A6nFXlPn/8ANkR+ppnl&#xA;2WrbrPqK708Vh/5r+7xzS6ztG/Tj+f6v1vU9l9h3U8w90f1/q+bGfyftrq+89JeFmcWkU01xISTU&#xA;yKYgGJ6kmSv0ZR2dAnKD3Ox7enGGl4f5xAH3/oSz86/MUuqebZrJXJs9LH1eJAdvUoDK1PHl8P0Z&#xA;dqsvFkPcNnI9ntIMWnEv4p7/AA6fjzemfkf5ok1nyj9TuXL3ekv9WYk1YwkcoSfkKp/sc2Gjnca7&#xA;nnPaLRjDqOIfTPf49f1/Fneo2SX2n3VlIzIl1E8LuhowEilSVPYiuZboQXwfqN95j0/ULmwub65S&#xA;4tJXgmT1pNnjYow6+IwOU9//AOcWPM11eWWuaNeXDzSQSRXcHqsXbjKpjkoWJNAY0+/C05Q95xan&#xA;z/8A85T+a7q1OiaDZ3EkEjepfXPpsUNP7qHdSP8AizFuxDq8p/K3zrqWkfmBol5dX0z2ZuVgullk&#xA;dk9K4rCzMCf2A/L6MDOQsPtbC4zHfzG1z9B+RNd1QOUkgs5RA47TSL6cX/JR1xZRFl8Q/pzW/wDq&#xA;4XP/ACOk/rgcl9Uf8416dfRfl+2p3sss0uqXUkkTSuz/ALmKkKgciafGj4WjId3z7+Zus6xH+Ynm&#xA;SNL64RE1G5VEWVwABKwAAB6DA2x5MZ/Tmt/9XC5/5HSf1xZO/Tmt/wDVwuf+R0n9cVd+nNb/AOrh&#xA;c/8AI6T+uKvQPyE1XVJ/zZ0KKe8nlib61yjeR2U0s5iKgmnXCwnyfV3maSSPy3qskbFJEs7hkdTQ&#xA;giJiCCOhGLRHm+Gh5v8ANoFBrd/T/mKm/wCasDk0oy+YdflcyS6ndyOertPISabdS2KVn6c1v/q4&#xA;XP8AyOk/riqeaD+aP5g6FKj6frt2ESlLeaQzw0ApT0peadPbFBiC+mvye/OO08920tleRJZ+YLRP&#xA;Umt0J9KWOoBli5EsKE0ZSTTbc9i0ThT0rFg7FXYq7FXYqtlliiieWVxHFGCzuxAVVAqSSe2AkAWU&#xA;xiSaHN4p+Yn5my6qZNM0l2i0wVWaYbPPQ/eqe3fv4Zzut15y+mP0fe9n2V2OMVTybz+79rzOeamY&#xA;UYvRxi97/Kfy4vl/ym+pXo9O61BRdT16pAqkxqf9iSx+edDosXh4+I9d/g8L23q/Hz8EfpjsPf1/&#xA;U+e9YvJL2/ubyX+9uZXmfv8AFIxY/ic1ETZsve4MYhERHICmb/8AOP2sG0863GnM1I9StnCr4ywH&#xA;1F+5OebPSSqXvdL7UYOLTCfWEvsO330+i82b5++OP+cgPL/6H/M7UmRCkGphL+H3MwpKfpmR8XIg&#xA;bCI/5x0139F/mdZwM4SHVYZrKQnpUr6sf0mSJVHzxXINn1/i474t/O/zD+nPzM1mZG5QWcgsYN6g&#xA;LbDg1D4GTm304HJgKDBASDUbEdDhZPu38v8AzD/iLyXo2sluUl3bIZz/AMXJ+7m/5KK2LjSFF55/&#xA;zlFrosvIltpaNSXVbtAy+MNuDI33Seniyxjd8rIjO6ogLOxAVRuSTsAMW996+T9CTQfK2k6MoANh&#xA;axQyFehkVB6jf7J6nFxZGy+MPzR/8mP5m/7aV1/ydbA5MeTJvyJ/L7y9511rUrPWxMYbW2WaL0X9&#xA;M8jIF3ND2OLGcqD2n/oWb8sv5L3/AKSP+bcLX4hd/wBCzfll/Je/9JH/ADbiviFNvKv5GeRfLGvW&#xA;uuaWt0L609T0TLNzT97G0TVXiP2XOKDMllvmr/lGNY/5grn/AJNNixjzfA2LlPdvyR/Jzyb5x8ny&#xA;6rrK3Ju0vJbdfRl9NeCJGw24nernA1zmQWfP/wA4yflmyFQL5CRQMLgVHuKoRhYeKXg/5v8A5Xy+&#xA;Qdcgt4p2u9Lv0aSxuJAFf4CA8b02LJyXcdQRi2xlaVflhrNxo/5g6BfQMQRexQygd4p2EUi7+KOc&#xA;CZDZ9zYXFdirsVdiqyeeGCF553WOGNS0kjGiqo3JJOCUgBZ5MoxMjQ3JeHfmH+Ys+tytYae7RaRG&#xA;aHqrTkftP/k/yr9J9ua1uuOY8Mfo+97XsrskYRxz3yfd+O955NNmJGLv4hkP5Z+VW8y+aIo5k5ad&#xA;ZUuL09ioPwR/7NhT5VzYaTBxyro6/tjW/l8BI+uWw/X8HuH5lah+j/I+rSrs0kP1daf8XsIj+DHN&#xA;vrZ8OIvF9kYvE1MB538t3y5c980UH0uKYfl5qH6P/MHQrmtAbyOFiOwnPon8JMz8BqQcftXF4mky&#xA;D+iT8t/0PrnNw+VPAf8AnK/y/wA7DRPMEa7wySWNw/ekg9WL7jG/34tuI9Hz9oOrTaPrmn6tD/e2&#xA;FzFcoPExOHp9NMDaX3P5k8x22keU9Q8wK6vDa2cl1Cx+y5Ccox/s2oB88LjAb0+DJpZJpXmlYvLI&#xA;xeRz1LMakn5nFylpBHXFX0//AM4r+YTd+VdS0ORqyaXciaIE/wC6boE0A9pI3P04tOUMH/5yl136&#xA;551sdIRy0WlWgLr/ACzXLc2++NY8WWMbMK/J7QP07+ZGhWbLyhjuBdTg9OFsDMQfZuAX6cDKRoPt&#xA;vC4z4Z/NH/yY/mb/ALaV1/ydbA5UeTPf+cZte0PR/MWsS6vqNrp0UtmqRyXc0cCswlBopkKgmmFh&#xA;kGz6N/x15IP/AE0Omf8ASZb/APNeLTwnuWyefvIkY5SeY9LRSaVa9twK/S+K8JTaw1HT9RtlutPu&#xA;ory1ckJPBIssZINDRkJG2KCEH5q/5RjWP+YK5/5NNimPN8DYuU+mP+ccfNvlTSPIM9rqutWGn3J1&#xA;CaQQXVzDDIUMUQDcZGU0JB3xacgNvUJ/zN/LqCJpX8z6WVXqI7yCRvoVGZj9AxYcJfNv5/8A5m6N&#xA;5z1fT7XRGabTdKWWl2ylPVlmK8uKtRuCrGtCQO+LdCNMV/Kjy/d67+YWh2dujMsV1FdXLD9iC3cS&#xA;SMT22Wg9yMCZGg+4cLjOxV2KuJABJNAOpxV4n+Zf5gtqs76VpshGlxGksi7eu4PX/UHbx6+Gc1r9&#xA;ccp4Y/QPt/Y9p2P2V4Q8SY9Z+z9rzaaXMKMXoYhATSsx4ruxNABuScyYRboh9Lflh5QHlnyzFDMn&#xA;HUrylxfk9Q7D4Y/+eY2+dc6DS4eCPmXzntjX/mMxI+iO0f1/FJfz0vTF5ZtLQGhuboMw8VjRif8A&#xA;hmXMXtSVQA7y5vs3jvNKXdH73z9c981cHu4pcty9reQ3Mf24JFlT5owYfqzMhybzASiYnqH2xDKk&#xA;0KSoapIodT7MKjN0DYt8clGjRYX+dGgfpv8ALTXLZVDTW8H1yAnqGtSJTx92RWX6cLKB3fFGLkPd&#xA;fO3n/wCs/wDOO/luwEn+maky2Nwvf0tNajVPiSkJ+nA1iPqeKaTptzqmqWemWo5XN9PHbwA/zyuE&#xA;X8ThbHo//OQnky38tebbI2UfCwvLCBYqCg52iC3Ybd+EaMfngYQNhv8A5xw8w/or8yYLSRgsGrwS&#xA;2bV6cwPVjPzLR8R/rYVyDZiP5ka7+nvPmuaqHMkU93IIHPeGI+lD/wAk0XAyiKD1f/nFHQTJqut6&#xA;86/DbQx2UBI2LTN6klD4qIl/4LC15Ts+ksWl8M/mj/5MfzN/20rr/k62Byo8mMYUuxV2Kvr/AP5x&#xA;x/8AJVaf/wAZ7n/k82Lj5ObOvNX/ACjGsf8AMFc/8mmxYx5vgbFynYq7FXYq+lv+cZtX8gCym02x&#xA;he281yJzvXuWDtcRqa/6OwCgIvUpSvc8qVxacgPwe74tTsVdirzf83POZsbb9A2UlLm5XleuvVIm&#xA;6J837+3zzTdqauh4ceZ5vR9hdn8cvFkNhy9/f8Pv9zxSaXNLGL2ICXzz9cyYRb4xehfkp5GbWNW/&#xA;xBfx103T3/0VWG0twNwfdY+v+tT3zZ6PBZs8g6D2h7S8LH4UD658/Ift+59A5t3g3jv5+XNbrSLW&#xA;v93HNKV/12VQf+EzS9qy9UQ9d7MQ9M5eY/H2vGLnvmFB6+KU3XU5mQcqD7I8n3LXXlLRLlvtT2Fr&#xA;Ia7mrwq38c3GP6R7nyPXw4c+SPdOX3prLFHLG8Uqh45FKujCoKkUII98m4j4H80aLJofmTVNHk3b&#xA;T7qa3DfzLG5VW3/mFDgcoFBSXt1JaQ2byFra3aR4Yz0VpePMj58Bil6b/wA43+W/0t+Y8N7Ioa20&#xA;aGS7bkKgyH91EPmGfmP9XCwyHZ61/wA5O+W/0j5Eh1eNKz6LcK7N4QXFIpB/wfpn6MWvGd3yzY31&#xA;1YXsF9aSGG6tZFmglXqroQykfIjFvUMVfYf/ADj1oH6I/LGwkdSs+qSS38oPhIeEf3xRofpxcfId&#xA;3pWLB8M/mj/5MfzN/wBtK6/5OtgcqPJnP/ONvlny/r/mHV4Na0+DUIYbRXijnQOFYygVFfbFjkNB&#xA;9A/8qm/LT/qWrD/kSuFp4y7/AJVN+Wn/AFLVh/yJXFeMsg0jRdJ0axSw0q0isrKMsyW8KhEBY1Yg&#xA;DxOKCbQ/mr/lGNY/5grn/k02Kx5vgbFyn0x/zjj5S8qav5BnutV0Ww1C5GoTRie6toZpAgiiIXlI&#xA;rGgJO2LTkJt6jL+Wn5dyxtG3ljSgrbEpZwI30MqBh9BxYcRfP/8AzkH+U+heVYrHXdAiNrYXcxtb&#xA;mz5M6JMULo0ZYswDKjVFe22LbCVvKfLOu3WgeYNP1m1YrPYTpMADTkFPxIfZ1qp9jgZkW++sLiux&#xA;VZPMkEEkz/YiVnangoqcEpULZRjxEAdXy3rWrXGpajc39w1ZrmRpG3rSp2A9gNhnHykZyMjzL6bp&#xA;8AxwEByASaebLYRcuMU+8hfl9qnm/UlIDQaPC4+u3vTbqY46/acj6B1PYHYafTmZ8nA7T7UhpId+&#xA;Q8h+k+X3vpnTNNsdM0+DT7GJYLS2QJDEvQAfrJ6k9zm6jERFB84zZpZJmcjciick1vDvz2dj5ns0&#xA;/ZWxRgPczSg/qzQ9qf3o/q/pL2vs0P3Ej/T/AEB5Pc98xoPUQSm675mQcqD68/Lgk+QfLxJqf0fb&#xA;jf2jAzb4fpD5R2t/jWT+vL72R5Y698lf85L6D+jvzGa/RaQ6vbRXFQKD1Ix6Lj50jVj88XIxnZ5P&#xA;izfUv/OLflz6l5NvdbkTjLq9yViYjrBa1RSP+erSD6MWnKd3q3mbRINd8valo09BHqFvLb8iK8S6&#xA;kK3+xahGLWDRfBFzbzW1xLbzKUmhdo5UPUMpowPyIwOUv0+xuL+/trG2XncXcqQQoNyXkYKo+84q&#xA;+/NK0630zTLPTrcUt7KCO3hH+REgRfwXC4pKKxQ+GfzR/wDJj+Zv+2ldf8nWwOVHkzH/AJx485+W&#xA;fK2varc6/fLYwXFqscLskj8nEgalI1c9MWMwSHvH/K9/ym/6mCP/AJEXP/VLC1eGXf8AK9/ym/6m&#xA;CP8A5EXP/VLFfDKP0H82fy91/VYNJ0jWEutQuefoQCKdS3poZG3eNV2VCeuKDAhOvNX/ACjGsf8A&#xA;MFc/8mmxRHm+BsXKfQ35Bfmb5G8s+SJtO1zVUsrxr6WZYWjmcmNo41DVjRx1U98WqcSS9KP58flM&#xA;FLHzBHQeEFyTt7CLFh4ZeFfnv+bum+dJLLS9EWQ6RYO0z3EqlDNMRxUqh3CqpNOW5r0GLbCNPMNG&#xA;0u51XVrLTLVS1xezx28Sj+aRgo/XgZv0BwuI7FWmVWUqwqrChB7g4kKDTzHWPyJ0q6neTTtSlso3&#xA;NfRkjE6rXsp5RmnzJzVS7LjfpNPS4PaXJEVOIl8a/W7R/wAg/LttMsuq3k2pcTX0QBBE3+sFLv8A&#xA;c4y3H2fEcza5/abNIVCIh9p/V9j0mysrOxtY7SzhS3toRxihjUKij2AzPjEAUHncmSU5GUjZKthY&#xA;OxV4d+e0bDzNZyfstYoo+azSk/8AEs0Pan96P6v6S9r7NH9zIf0/0B5Pc98xoPUQSm675mQcqD7H&#xA;8m2rWvlDQ7ZvtQafaxttTdYVB/HNxi+ke58j18+LUZJd85fenGTcR4j/AM5U6D9Z8q6XrSCsmm3R&#xA;hkoP91XS7kn2eJR9OLbiL5hRGd1RAWdiAqjcknYAYtz7y8l6Avl7ynpOigANY2scUvHoZeNZWH+t&#xA;IWOLiyNlOsUPjT8+/Lx0X8ztU4oVg1IrqEJP7X1jeU/8jlfFyIGwu/IHQP0x+Z+mFlLQaaHv5qdv&#xA;RFIz/wAjnTFZmg+ycXHdir4Z/NH/AMmP5m/7aV1/ydbA5UeTGMKXYq7FXof/ADj7/wCTd0H/AKO/&#xA;+oKbFhPk+tvNX/KMax/zBXP/ACabFojzfA2LlOxV2KozS9G1bVrpbXS7Oa9uWNFit42kbf2UHAr6&#xA;T/JD8jLry5dp5l8zKo1dVIsbBSHFvyFDI7qSrSEEgAbL1rXoWmc72D27FqdirsVdirsVdirsVdir&#xA;yb8+tNdrfS9SUfBG0lvKfAuA6f8AEWzT9qw+mXweq9mcwucPcf1/oeH3PfMCD2cFHSNIm1nXbDSo&#xA;Qed7PHDUdQHYBm/2I3zNxi9mefOMOKWQ/wAIJfZyIqIqIKIoCqPADYZugHyAmzbeKFk0MMyGOaNZ&#xA;Iz1RwGG3scVUBpWlggizgBG4IjStfuxTaKxQ7FVGeys7hg08EcrAUDOisQPDcYrboLKzt2LQQRxM&#xA;RQsiKpI8Nhitq2KuxVDPpmmyOXe0hd2NWZo1JJPckjFNtfonSv8Alig/5FJ/TFbLv0TpX/LFB/yK&#xA;T+mK2Wm0vSFUs1nbhQKkmNAAB9GKi27ay0xSs9tBAGFeMsaJXwNGUYApsbFEvw4NzpwoeXLpTvWu&#xA;FAai9L0lEPH0gAE4U40GwpTamKSK5od9M0slpJLSAk1Z3aNPmSSRiu6Eg8v+Vmb1bfTbEsp/vI4I&#xA;ag/MLgBBSeIc0xjjt7eLjGiQxLU0UBVHcnagwo5ro5YpV5ROrqDQlSCK/RgBtTEjmuwodirsVdir&#xA;sVdirsVdiqX+YNDstd0i50u8B9G4WnJftIwNVdfdSK5VmxDJExLkaXUywZBOPMPC9Z/IzznDcslj&#xA;6F9bkn05VkERp25LJSh+ROak6HJE7bva4PaPTmPquJ91/czT8q/yhfy3eHWtZeOXVeJS1hiPJIVY&#xA;UZixAq5G22wHjXbP0+nMd5c3T9tdujUR8PHYh18/2PUMzHmnYq7FXYq7FXYq7FXYq7FXYq7FXYq7&#xA;FXjH5peTvzB86ed7XSY1ltPJ8QjV7sMhiLFfUklaIOruwPwKCNqdqk5j5ATJ6/sbX6TSaY5DUtQb&#xA;269wF1t3sNh07VPys/NrSdG0vVHvbHUntvrMBBUNFczGEpJGGKmRQOSt8shXDJ20ssO0tBPJOHDK&#xA;HFR84i9j3d6YfmHFrXn385P8FfXmtNLtQFRd2ReNuJ5JTHyUM5J4j6PfDL1Spo7LOPRdn/meHinL&#xA;/iqAvu6oXRINZ/LH84LDy3bahJdaRqU0EbRN8KSR3bemrNHUqHjk/aHh4GmIuMqbdRLH2j2fLMYg&#xA;ZIA/Dh359xHRk/55XXnzVNQu9A0blD5fsNMbUtYnWqKyqJWMcknfksVFjHU9dukshJNdzrfZ2Glx&#xA;wGXJvllPhiPluB8dz8vMR/zjB/yiGq/9tA/8mI8OHq1+2H+MQ/qfpKF/O648/azqN/oOkg2/lzS9&#xA;NbUdVnFUWUIjyFHkA32Sixjqd226DISTXc2+z0dLihHLk3yznwxHdyGw+O5+XmY/84x/8oFf/wDb&#xA;Vm/6h7fJ4eTj+1/+NR/4WP8AdSeu5a8q7FXYq7FXYq7FXYq7FXYq7FXYq7FXYq7FXYq7FXYq7FXY&#xA;q7FXYq7FXYq7FWI/mV+Yum+SdDN3Nxn1K4qmnWRNDI4pVmp0RK1Y/R1OV5J8I83a9k9lT1mThG0B&#xA;9R7v2l5z+TfkHVtb1k/mL5sZ5rqd/W02OUUZ2IoJ2WgARV2iA+fQLleOFmy7/t7tPHhx/lMG0RtL&#xA;9Xv/AJ39qH0t0X/nKK7DGhf1FUeJ+oBv1DIj6/i2ZhfYsfh/u1v5kNGf+chfLAI9TidPBUDlRvrD&#xA;kEj2qD+OGf1/EJ7JB/knL/n/AO5D1/8AMH/lAvMv/bKvf+od8vlyLynZn+NYv+GR/wB0HnX/ADjB&#xA;/wAohqv/AG0D/wAmI8qw9Xf+2H+MQ/qfpL0X8wf+UC8y/wDbKvf+od8tlyLoOzP8axf8Mj/ugwH/&#xA;AJxj/wCUCv8A/tqzf9Q9vkMPJ3ntf/jUf+Fj/dSeu5a8q7FXYq7FXYq7FXYq7FXYq7FXYq7FXYq7&#xA;FXYq7FXYq7FXYq7FXYq7FXYq7FXhf5p/k15581edbrWbG4tGsGSFLSO4lYMixxqGXiEcUMnJvpzH&#xA;nAkvadjdvabTaYY5CXFvdDz9/dSM0fyb+f0GqWMl95hhk0+KeJrqFZieUKuC6geiOq1GAQn+C1Z9&#xA;f2XKEhHGeIg1t16fxIj8zPyg8x6j5tj84eUL1LXVv3bTxyOY2EkShFkjejLugAZW2+daZLJjN2Gv&#xA;sjtzDjwHT6iNw3rrsd6Px6rPI/5OeZx5vj83+d9SS81KBhJDBGxkJkVeKNI5VFUJ+yqDw37YIYjd&#xA;ll2j29h/L/l9NHhgev6vf3l6f5q0y41XyvrGmWxUXN/Y3NtAXNF5zQsi8iAaCrb5fIbPN6LMMWaE&#xA;5coyiT8DbEvyX8h635M0C9sNXaFp7i7M8Zt3Z14emibllTeq5XiiRzdr2/2lj1eWMsd0I1v7yy3z&#xA;VplxqvlfWNMtioub+xubaAuaLzmhZF5EA0FW3yyQ2dVoswxZoTlyjKJPwNsW/JnyPrPk3yvdaZqz&#xA;QtczX0lyht2LrwaGJBUsqb1jOQxxIG7s+3+0cerzCeO6EQN/eT+l/9k=</xmpGImg:image>
               </rdf:li>
            </rdf:Alt>
         </xmp:Thumbnails>
      </rdf:Description>
      <rdf:Description rdf:about=""
            xmlns:xmpTPg="http://ns.adobe.com/xap/1.0/t/pg/"
            xmlns:stDim="http://ns.adobe.com/xap/1.0/sType/Dimensions#"
            xmlns:xmpG="http://ns.adobe.com/xap/1.0/g/">
         <xmpTPg:NPages>1</xmpTPg:NPages>
         <xmpTPg:HasVisibleTransparency>False</xmpTPg:HasVisibleTransparency>
         <xmpTPg:HasVisibleOverprint>False</xmpTPg:HasVisibleOverprint>
         <xmpTPg:MaxPageSize rdf:parseType="Resource">
            <stDim:w>364.103185</stDim:w>
            <stDim:h>250.282053</stDim:h>
            <stDim:unit>Millimeters</stDim:unit>
         </xmpTPg:MaxPageSize>
         <xmpTPg:PlateNames>
            <rdf:Seq>
               <rdf:li>Cyan</rdf:li>
               <rdf:li>Magenta</rdf:li>
               <rdf:li>Yellow</rdf:li>
               <rdf:li>Black</rdf:li>
            </rdf:Seq>
         </xmpTPg:PlateNames>
         <xmpTPg:SwatchGroups>
            <rdf:Seq>
               <rdf:li rdf:parseType="Resource">
                  <xmpG:groupName>Groupe de nuances par défaut</xmpG:groupName>
                  <xmpG:groupType>0</xmpG:groupType>
                  <xmpG:Colorants>
                     <rdf:Seq>
                        <rdf:li rdf:parseType="Resource">
                           <xmpG:swatchName>C=64 M=71 J=58 N=58</xmpG:swatchName>
                           <xmpG:mode>CMYK</xmpG:mode>
                           <xmpG:type>PROCESS</xmpG:type>
                           <xmpG:cyan>63.866596</xmpG:cyan>
                           <xmpG:magenta>70.940697</xmpG:magenta>
                           <xmpG:yellow>57.512802</xmpG:yellow>
                           <xmpG:black>57.912601</xmpG:black>
                        </rdf:li>
                        <rdf:li rdf:parseType="Resource">
                           <xmpG:swatchName>C=17 M=98 J=79 N=6</xmpG:swatchName>
                           <xmpG:mode>CMYK</xmpG:mode>
                           <xmpG:type>PROCESS</xmpG:type>
                           <xmpG:cyan>17.254902</xmpG:cyan>
                           <xmpG:magenta>98.431404</xmpG:magenta>
                           <xmpG:yellow>79.215698</xmpG:yellow>
                           <xmpG:black>6.274498</xmpG:black>
                        </rdf:li>
                        <rdf:li rdf:parseType="Resource">
                           <xmpG:swatchName>C=0 M=34 J=93 N=0</xmpG:swatchName>
                           <xmpG:mode>CMYK</xmpG:mode>
                           <xmpG:type>PROCESS</xmpG:type>
                           <xmpG:cyan>0.003099</xmpG:cyan>
                           <xmpG:magenta>34.286999</xmpG:magenta>
                           <xmpG:yellow>93.054100</xmpG:yellow>
                           <xmpG:black>0.003099</xmpG:black>
                        </rdf:li>
                     </rdf:Seq>
                  </xmpG:Colorants>
               </rdf:li>
            </rdf:Seq>
         </xmpTPg:SwatchGroups>
      </rdf:Description>
      <rdf:Description rdf:about=""
            xmlns:dc="http://purl.org/dc/elements/1.1/">
         <dc:format>image/svg+xml</dc:format>
         <dc:title>
            <rdf:Alt>
               <rdf:li xml:lang="x-default">LogoSudWeb</rdf:li>
            </rdf:Alt>
         </dc:title>
      </rdf:Description>
      <rdf:Description rdf:about=""
            xmlns:xmpMM="http://ns.adobe.com/xap/1.0/mm/"
            xmlns:stRef="http://ns.adobe.com/xap/1.0/sType/ResourceRef#"
            xmlns:stEvt="http://ns.adobe.com/xap/1.0/sType/ResourceEvent#">
         <xmpMM:RenditionClass>proof:pdf</xmpMM:RenditionClass>
         <xmpMM:DocumentID>xmp.did:F77F117407206811BB8EFA97569BA8B7</xmpMM:DocumentID>
         <xmpMM:InstanceID>xmp.iid:F77F117407206811BB8EFA97569BA8B7</xmpMM:InstanceID>
         <xmpMM:OriginalDocumentID>uuid:6214b174-7758-fb42-b2f1-9bf8022ab289</xmpMM:OriginalDocumentID>
         <xmpMM:DerivedFrom rdf:parseType="Resource">
            <stRef:instanceID>uuid:2c105a84-58c6-d44e-b39a-56b6e4cba521</stRef:instanceID>
            <stRef:documentID>uuid:6214b174-7758-fb42-b2f1-9bf8022ab289</stRef:documentID>
            <stRef:originalDocumentID>uuid:6214b174-7758-fb42-b2f1-9bf8022ab289</stRef:originalDocumentID>
            <stRef:renditionClass>proof:pdf</stRef:renditionClass>
         </xmpMM:DerivedFrom>
         <xmpMM:History>
            <rdf:Seq>
               <rdf:li rdf:parseType="Resource">
                  <stEvt:action>saved</stEvt:action>
                  <stEvt:instanceID>xmp.iid:F77F117407206811BB8EFA97569BA8B7</stEvt:instanceID>
                  <stEvt:when>2011-02-07T09:53:35+01:00</stEvt:when>
                  <stEvt:softwareAgent>Adobe Illustrator CS4</stEvt:softwareAgent>
                  <stEvt:changed>/</stEvt:changed>
               </rdf:li>
            </rdf:Seq>
         </xmpMM:History>
      </rdf:Description>
      <rdf:Description rdf:about=""
            xmlns:pdf="http://ns.adobe.com/pdf/1.3/">
         <pdf:Producer>Adobe PDF library 9.00</pdf:Producer>
      </rdf:Description>
   </rdf:RDF>
</x:xmpmeta>
                                                                                                    
                                                                                                    
                                                                                                    
                                                                                                    
                                                                                                    
                                                                                                    
                                                                                                    
                                                                                                    
                                                                                                    
                                                                                                    
                                                                                                    
                                                                                                    
                                                                                                    
                                                                                                    
                                                                                                    
                                                                                                    
                                                                                                    
                                                                                                    
                                                                                                    
                                                                                                    
                           
<?xpacket end="w"?>
	</metadata>
<g>
	<path fill-rule="evenodd" clip-rule="evenodd" fill="#C01432" d="M897.959,294.71c3.206,7.211-3.892,14.111-8.364,19.715
		c-8.461,10.6-22.477,22.922-37.039,10.753c-9.58-8.005-15.367-23.426-19.715-36.442c-11.609,20.556-30.599,44.397-63.325,40.624
		c-16.693-1.925-29.032-9.646-36.442-22.104c-6.024,7.329-16.814,25.83-32.857,22.104c-8.854-2.057-12.794-16.435-14.338-26.883
		c-1.98-13.413-1.705-25.848-1.792-39.429c-8.553,22.154-15.183,44.581-32.26,58.546c-7.982,6.527-27.397,13.853-38.832,4.182
		c-2.713-2.294-6.582-8.016-8.363-11.948c-12.32-27.188-6.515-80.017,0.597-112.313c1.59-7.219,4.192-27.875,11.948-29.871
		c5.782-1.487,12.158,1.535,13.143,5.974c0.658,2.968-1.116,7.667-2.39,11.948c-6.691,22.493-13.741,56.061-13.741,82.442
		c0,13.972,2.205,37.543,15.533,38.234c4.993,0.259,9.384-3.288,11.948-5.376c7.891-6.427,13.551-16.7,18.52-26.884
		c11.73-24.045,20.641-54.69,24.494-89.014c0.757-6.746,1.265-16.485,3.584-18.52c4.233-3.713,14.622-2.021,16.728,2.987
		c1.532,3.645-0.244,10.55-1.194,16.728c-4.323,28.099-5.075,58.768-3.585,90.806c0.498,10.694,2.341,28.722,8.364,29.87
		c8.206,1.564,14.205-12.225,18.52-15.532c-11.899-32.002-2.019-69.011,14.936-93.196c15.486-22.093,39.161-36.709,75.273-31.065
		c0.237-29.305,6.053-61.385,17.325-83.637c3.122-6.164,10.477-20.747,16.727-20.91c13.691-0.357,16.416,26.914,17.923,43.014
		c5.138,54.915-6.049,104.196-20.91,144.573c-1.442,3.919-4.074,7.935-4.181,10.753c-0.146,3.795,2.624,9.085,4.181,13.741
		c3.261,9.744,10.111,31.831,20.312,32.26c5.76,0.242,10.447-5.535,14.338-8.961C887.36,298.061,890.854,293.03,897.959,294.71z
		 M839.413,126.241c-2.381,12.184-4.96,26.086-5.377,38.832c-0.371,11.302,1.17,23.107,1.792,34.649
		c0.612,11.367,0.31,22.891,2.987,33.455c10.793-39.644,21.855-94.275,11.351-142.183
		C845.695,101.27,842.038,112.799,839.413,126.241z M796.997,187.774c-31.277,2.939-54.385,37.402-56.754,70.494
		c-1.619,22.59,5.777,42.3,20.312,49.585c20.273,10.163,41.913-4.348,50.779-15.533c3.793-4.785,13.927-19.672,14.338-25.688
		c0.329-4.806-2.546-11.428-3.584-17.325c-3.433-19.492-4.409-38.165-4.779-59.741C809.069,188.466,804.991,187.023,796.997,187.774
		z"/>
	<path fill-rule="evenodd" clip-rule="evenodd" fill="#C01432" d="M477.382,92.786c32.348-2.392,65.404,9.229,86.027,25.689
		c5.668,4.523,18.351,12.958,14.338,20.312c-4.017,7.361-13.842,1.174-16.728-1.195c-5.423-4.453-9.897-8.411-13.74-10.753
		c-18.131-11.05-49.419-20.359-81.248-14.338c-12.747,2.412-25.794,6.491-36.442,13.741c-8.021,5.461-20.114,16.93-16.728,32.26
		c3.382,15.309,28.253,18.893,43.611,23.299c34.371,9.86,69.894,17.783,98.573,34.649c14.692,8.641,27.914,18.303,33.455,32.858
		c7.068,18.565-2.588,38.821-11.351,48.987c-19.147,22.217-59.362,36.125-102.754,31.663c-20.55-2.113-37.737-6.314-54.364-13.143
		c-7.728-3.173-14.521-6.035-22.104-11.948c-5.538-4.319-14.282-13.925-10.156-20.91c2.46-4.164,9.221-3.984,14.338-2.39
		c5.78,1.802,8.315,5.003,11.351,7.169c8.163,5.826,16.543,9.878,24.494,13.143c16.12,6.62,39.708,13.037,62.728,10.753
		c19.967-1.98,39.893-9.78,51.377-18.52c6.648-5.06,17.859-14.78,15.532-31.065c-2.097-14.677-21.424-25.366-34.649-31.663
		c-32.025-15.246-63.004-20.393-99.768-31.663c-17.265-5.292-33.42-12.166-40.026-25.688c-9.289-19.012-0.441-40.757,9.559-51.377
		C418.146,106.259,448.738,94.904,477.382,92.786z"/>
	<linearGradient id="SVGID_1_" gradientUnits="userSpaceOnUse" x1="6.3564" y1="202.5513" x2="324.4625" y2="136.242">
		<stop  offset="0" style="stop-color:#CD012F"/>
		<stop  offset="1" style="stop-color:#F9B410"/>
	</linearGradient>
	<path fill-rule="evenodd" clip-rule="evenodd" fill="url(#SVGID_1_)" d="M279.042,18.707c11.899-3.558,21.987,12.245,26.883,20.312
		c15.027,24.762,29.125,60.766,32.858,92.598c2.941,25.088-0.031,53.25-5.377,76.468c-2.341,10.167-5.019,20.395-9.559,32.26
		c-3.138,8.201-9.16,25.706-15.533,26.286c-6.474,0.589-13.481-10.875-17.325-18.52c-8.975-17.852-11.533-34.296-14.936-56.157
		c-6.275-40.311-9.885-86.454-8.961-133.222C267.422,42.155,267.277,22.225,279.042,18.707z"/>
	<linearGradient id="SVGID_2_" gradientUnits="userSpaceOnUse" x1="150.7109" y1="245.4741" x2="323.6527" y2="-62.7739">
		<stop  offset="0" style="stop-color:#C01432"/>
		<stop  offset="0.6566" style="stop-color:#F9B410"/>
	</linearGradient>
	<path fill-rule="evenodd" clip-rule="evenodd" fill="url(#SVGID_2_)" d="M101.014,128.033c14.932-0.667,24.192,6.427,35.248,14.338
		c38.462,27.523,67.168,58.805,101.56,93.196c5.901,5.901,11.558,12.646,18.52,20.312c5.175,5.698,17.779,15.087,16.728,22.104
		c-1.833,12.235-27.27,2.011-31.663,0.598c-57.068-18.351-100.464-43.304-139.794-79.456c-7.007-6.441-14.54-13.829-21.507-22.702
		c-6.005-7.648-15.65-22.166-12.545-33.455C70.879,130.897,87.993,128.615,101.014,128.033z"/>
	<linearGradient id="SVGID_3_" gradientUnits="userSpaceOnUse" x1="161.6709" y1="435.5654" x2="127.0218" y2="255.1501">
		<stop  offset="0" style="stop-color:#C01432"/>
		<stop  offset="1" style="stop-color:#F9B410"/>
	</linearGradient>
	<path fill-rule="evenodd" clip-rule="evenodd" fill="url(#SVGID_3_)" d="M119.534,297.1c45.83-2.182,88.875,3.597,129.04,11.948
		c7.632,1.587,12.956,2.03,14.338,5.377c3.718,9.006-14.182,15.631-20.909,17.922c-11.229,3.824-21.63,5.967-31.663,8.364
		c-23.06,5.51-42.2,9.061-65.118,14.338c-20.262,4.666-42.88,11.066-66.91,13.143c-17.34,1.499-38.372,1.399-50.182-7.169
		c-9.788-7.101-9.29-14.691-2.987-25.688c9.129-15.93,24.492-24.965,44.806-31.065C85.067,299.729,102.577,297.907,119.534,297.1z"
		/>
	<linearGradient id="SVGID_4_" gradientUnits="userSpaceOnUse" x1="404.7402" y1="488.4795" x2="88.1152" y2="489.6742">
		<stop  offset="0" style="stop-color:#C01432"/>
		<stop  offset="1" style="stop-color:#F9B410"/>
	</linearGradient>
	<path fill-rule="evenodd" clip-rule="evenodd" fill="url(#SVGID_4_)" d="M321.458,353.256c8.808-0.998,14.806,14.485,18.52,25.091
		c8.761,25.019,10.906,40.372,15.533,68.702c5.82,35.639,10.145,76.571,5.376,117.093c-2.904,24.684-9.279,48.827-26.286,57.352
		c-13.478,6.756-32.476,0.977-40.624-8.962c-11.795-14.385-14.657-38.591-15.532-63.922c-1.169-33.811,5.081-74.289,11.351-106.937
		c2.002-10.424,4.774-21.702,7.169-32.26c3.466-15.288,8.506-48.914,22.701-56.156C320.062,353.054,321.009,353.307,321.458,353.256
		z"/>
	<linearGradient id="SVGID_5_" gradientUnits="userSpaceOnUse" x1="281.8027" y1="521.1172" x2="73.5661" y2="340.7548">
		<stop  offset="0" style="stop-color:#C01432"/>
		<stop  offset="1" style="stop-color:#F9B410"/>
	</linearGradient>
	<path fill-rule="evenodd" clip-rule="evenodd" fill="url(#SVGID_5_)" d="M286.809,353.854c5.455,11.383-0.758,24.616-4.779,34.65
		c-4.092,10.212-10.112,20.392-14.935,29.273c-10.033,18.474-20.096,37.613-31.065,56.754c-10.01,17.467-22.156,35.884-37.04,51.378
		c-14.166,14.746-31.9,29.766-57.948,29.869c-12.521,0.051-25.825-3.304-28.676-11.947c-3.547-10.756,4.018-25.563,8.961-34.053
		c16.242-27.895,38.576-51.719,59.741-72.884c22.968-22.968,43.919-42.739,69.299-63.325c9.178-7.445,17.936-15.667,28.676-19.715
		C280.729,353.218,283.825,352.793,286.809,353.854z"/>
	<path fill-rule="evenodd" clip-rule="evenodd" fill="#402F33" d="M430.784,359.23c10.634,44.328,21.824,88.1,32.26,132.625
		c13.656-43.496,25.832-88.474,38.832-132.625c10.555,0,21.108,0,31.663,0c12.643,44.31,25.673,88.232,38.234,132.625
		c11.491-43.671,22.344-87.978,32.858-132.625c14.736,0,29.472,0,44.208,0c-18.905,70.905-38.385,141.236-56.754,212.678
		c-11.948,0-23.896,0-35.845,0c-12.169-43.191-25.877-84.842-38.234-127.846c-13.482,42.077-26.325,84.793-38.832,127.846
		c-11.948,0-23.896,0-35.845,0c-18.272-70.742-37.151-140.876-56.156-210.886c0-0.597,0-1.195,0-1.792
		C401.711,359.23,416.248,359.23,430.784,359.23z"/>
	<path fill-rule="evenodd" clip-rule="evenodd" fill="#402F33" d="M672.138,359.23c46.599,0,93.195,0,139.794,0
		c0,12.347,0,24.692,0,37.039c-32.857,0-65.715,0-98.572,0c0,16.329,0,32.658,0,48.988c26.884,1.394,56.355,0.199,84.234,0.597
		c0,12.546,0,25.091,0,37.637c-28.078,0-56.156,0-84.234,0c0,16.927,0,33.854,0,50.78c31.662,1.394,65.913,0.199,98.572,0.598
		c0,12.346,0,24.692,0,37.039c-46.797,0-93.595,0-140.391,0c0-70.296,0-140.59,0-210.886
		C671.489,360.175,671.441,359.331,672.138,359.23z"/>
	<path fill-rule="evenodd" clip-rule="evenodd" fill="#402F33" d="M850.166,359.23c32.343,1.653,66.052-2.229,94.988,0
		c35.833,2.761,58.722,27.514,56.156,63.325c-1.366,19.057-11.749,31.851-25.688,40.026c7.306,4.842,13.643,8.389,18.52,14.936
		c13.35,17.922,12.963,45.211,3.584,63.923c-7.805,15.571-25.491,28.399-48.987,30.468c-31.513,2.773-66.967-2.078-99.17,0
		c0-70.296,0-140.59,0-210.886C849.517,360.175,849.469,359.331,850.166,359.23z M891.388,398.062c0,15.731,0,31.464,0,47.196
		c25.851-1.176,58.838,5.559,66.312-14.338c4.613-12.285,0.104-26.55-10.754-31.663c-13.784-6.492-35.684-1.185-54.962-2.987
		C891.288,396.37,891.336,397.214,891.388,398.062z M891.388,484.687c0,16.728,0,33.454,0,50.183
		c22.404-1.92,51.492,5.03,63.922-7.17c6.122-6.009,9.541-18.518,5.377-29.87c-7.635-20.813-40.452-13.833-68.702-14.936
		C891.288,482.994,891.336,483.839,891.388,484.687z"/>
	<path fill-rule="evenodd" clip-rule="evenodd" fill="#C01432" d="M785.646,670.48c10.355,0,20.71,0,31.065,0
		c0,4.381,0,8.763,0,13.143c-16.528,0-33.058,0-49.585,0c0.795-1.542-0.958-8.695,0-12.545c0.684-2.749,4.862-6.636,8.363-10.754
		c5.685-6.685,11.931-13.377,17.923-20.312c4.532-5.244,9.782-10.388,7.767-17.923c-2.403-8.977-20.072-9.529-19.117,3.585
		c-4.979,0-9.957,0-14.936,0c-0.568-32.286,51.203-31.77,49.585,1.194c-0.497,10.138-9.114,18.202-15.532,25.689
		C795.747,658.894,789.669,664.39,785.646,670.48z"/>
	<path fill-rule="evenodd" clip-rule="evenodd" fill="#C01432" d="M847.776,602.376c12.429-1.759,24.066,4.687,27.48,14.338
		c2.826,7.984,1.195,19.15,1.195,27.481c0,8.573,1.284,19.673-1.792,26.883c-5.659,13.257-33.326,20.867-44.209,2.986
		c-3.894-6.396-3.584-19.17-3.584-28.675C826.867,620.052,825.828,605.481,847.776,602.376z M841.802,641.806
		c0,14.137-1.487,30.029,10.754,29.272c10.924-0.676,8.961-13.688,8.961-28.078c0-13.494,1.86-30.714-12.545-26.884
		C840.446,618.383,841.802,627.638,841.802,641.806z"/>
	<path fill-rule="evenodd" clip-rule="evenodd" fill="#C01432" d="M924.244,602.376c0,27.083,0,54.164,0,81.247
		c-4.979,0-9.956,0-14.935,0c0-21.307,0-42.615,0-63.922c-5.145,2.426-10.56,9.75-16.728,13.143c0.901-6.266-1.276-10.789,0-14.935
		c1.357-4.413,14.402-11.89,17.325-15.533C914.686,602.376,919.465,602.376,924.244,602.376z"/>
	<path fill-rule="evenodd" clip-rule="evenodd" fill="#C01432" d="M985.181,602.376c0,27.083,0,54.164,0,81.247
		c-4.979,0-9.957,0-14.936,0c0-21.307,0-42.615,0-63.922c-5.144,2.426-10.56,9.75-16.728,13.143c0.902-6.266-1.276-10.789,0-14.935
		c1.358-4.413,14.403-11.89,17.325-15.533C975.622,602.376,980.401,602.376,985.181,602.376z"/>
</g>
</svg>
